HIERARCHY
ROOT Hips
{
	OFFSET -0.001795 -0.223333 0.028219
	CHANNELS 6 Xposition Yposition Zposition Zrotation Yrotation Xrotation 
	JOINT LeftUpLeg
	{
		OFFSET 0.069520 -0.091406 -0.006815
		CHANNELS 3 Zrotation Yrotation Xrotation
		JOINT LeftLeg
		{
			OFFSET 0.034277 -0.375199 -0.004496
			CHANNELS 3 Zrotation Yrotation Xrotation
			JOINT LeftFoot
			{
				OFFSET -0.013596 -0.397961 -0.043693
				CHANNELS 3 Zrotation Yrotation Xrotation
				JOINT LeftToe
				{
					OFFSET 0.026358 -0.055791 0.119288
					CHANNELS 3 Zrotation Yrotation Xrotation
					End Site
					{
						OFFSET 0.000000 0.000000 0.000000
					}
				}
			}
		}
	}
	JOINT RightUpLeg
	{
		OFFSET -0.067670 -0.090522 -0.004320
		CHANNELS 3 Zrotation Yrotation Xrotation
		JOINT RightLeg
		{
			OFFSET -0.038290 -0.382569 -0.008850
			CHANNELS 3 Zrotation Yrotation Xrotation
			JOINT RightFoot
			{
				OFFSET 0.015774 -0.398415 -0.042312
				CHANNELS 3 Zrotation Yrotation Xrotation
				JOINT RightToe
				{
					OFFSET -0.025372 -0.048144 0.123348
					CHANNELS 3 Zrotation Yrotation Xrotation
					End Site
					{
						OFFSET 0.000000 0.000000 0.000000
					}
				}
			}
		}
	}
	JOINT Spine
	{
		OFFSET -0.002533 0.108963 -0.026696
		CHANNELS 3 Zrotation Yrotation Xrotation
		JOINT Spine1
		{
			OFFSET 0.005487 0.135180 0.001092
			CHANNELS 3 Zrotation Yrotation Xrotation
			JOINT Spine2
			{
				OFFSET 0.001457 0.052922 0.025425
				CHANNELS 3 Zrotation Yrotation Xrotation
				JOINT Neck
				{
					OFFSET -0.002778 0.213870 -0.042857
					CHANNELS 3 Zrotation Yrotation Xrotation
					JOINT Head
					{
						OFFSET 0.005152 0.064970 0.051349
						CHANNELS 3 Zrotation Yrotation Xrotation
						End Site
						{
							OFFSET 0.000000 0.000000 0.000000
						}
					}
				}
				JOINT LeftShoulder
				{
					OFFSET 0.078845 0.121749 -0.034090
					CHANNELS 3 Zrotation Yrotation Xrotation
					JOINT LeftArm
					{
						OFFSET 0.090977 0.030469 -0.008868
						CHANNELS 3 Zrotation Yrotation Xrotation
						JOINT LeftForeArm
						{
							OFFSET 0.259612 -0.012772 -0.027456
							CHANNELS 3 Zrotation Yrotation Xrotation
							JOINT LeftHand
							{
								OFFSET 0.249234 0.008986 -0.001171
								CHANNELS 3 Zrotation Yrotation Xrotation
								End Site
								{
									OFFSET 0.000000 0.000000 0.000000
								}
							}
						}
					}
				}
				JOINT RightShoulder
				{
					OFFSET -0.081759 0.118833 -0.038615
					CHANNELS 3 Zrotation Yrotation Xrotation
					JOINT RightArm
					{
						OFFSET -0.096012 0.032551 -0.009143
						CHANNELS 3 Zrotation Yrotation Xrotation
						JOINT RightForeArm
						{
							OFFSET -0.253742 -0.013329 -0.021401
							CHANNELS 3 Zrotation Yrotation Xrotation
							JOINT RightHand
							{
								OFFSET -0.255298 0.007772 -0.005559
								CHANNELS 3 Zrotation Yrotation Xrotation
								End Site
								{
									OFFSET 0.000000 0.000000 0.000000
								}
							}
						}
					}
				}
			}
		}
	}
}
MOTION
Frames: 12
Frame Time: 0.050000
0.029827 0.940091 0.827207 -1.725732 3.250417 4.370335 3.256410 -0.175347 -1.319497 0.470651 -0.032191 -0.410025 3.546078 9.238822 6.098080 0.000000 0.000000 0.000000 1.768969 0.371401 -3.589830 -0.601478 0.160203 2.182213 -3.718680 -10.791215 6.808739 0.000000 0.000000 0.000000 3.331738 0.469772 -8.288080 2.940116 -1.159322 -3.593320 -4.913481 3.677501 12.362322 6.083518 -1.303302 -20.802812 0.000000 0.000000 0.000000 9.473432 -15.334605 4.921455 -1.016346 -48.046754 -3.698061 112.119290 -18.957131 -28.441871 0.000000 0.000000 0.000000 8.716141 2.171613 1.003193 65.102792 -1.135519 -7.060815 4.063673 30.805344 2.693908 0.000000 0.000000 0.000000 
0.029722 0.940280 0.826249 -1.742288 3.097578 4.369259 3.304102 -0.187655 -1.521817 0.388006 -0.035194 -0.122252 3.619707 9.375209 6.140513 0.000000 0.000000 0.000000 1.849691 0.391283 -3.765315 -0.737178 0.185594 2.360697 -3.662449 -10.687553 6.838847 0.000000 0.000000 0.000000 3.202030 0.466841 -8.307189 3.012778 -1.190393 -3.632733 -4.889896 3.545361 12.289272 5.871848 -1.228197 -20.637876 0.000000 0.000000 0.000000 10.033573 -15.018331 4.826447 -0.658009 -48.290909 -3.829501 111.766708 -17.900041 -26.763322 0.000000 0.000000 0.000000 8.308708 2.194325 0.979808 65.528879 -1.227412 -7.141500 3.129683 30.999337 2.464157 0.000000 0.000000 0.000000 
0.029572 0.940575 0.825361 -1.694516 2.896314 4.459923 3.275386 -0.200379 -1.745156 0.310730 -0.033872 0.047284 3.695722 9.538722 6.281380 0.000000 0.000000 0.000000 1.794421 0.425049 -4.069992 -0.760191 0.198923 2.596267 -3.587333 -10.548527 6.873339 0.000000 0.000000 0.000000 3.118206 0.469546 -8.396491 2.993018 -1.178147 -3.709902 -4.863207 3.397701 12.250329 5.656334 -1.141444 -20.594310 0.000000 0.000000 0.000000 10.461518 -14.839436 4.760185 -0.159113 -48.252939 -3.966923 111.620145 -17.036281 -25.420893 0.000000 0.000000 0.000000 7.953528 1.880643 0.804940 65.645071 -1.520423 -7.317834 3.020585 30.973336 2.418122 0.000000 0.000000 0.000000 
0.029362 0.940543 0.824659 -1.676243 3.063004 4.546807 3.375480 -0.213394 -1.909514 0.157230 -0.017744 0.038633 3.616215 9.403219 6.270566 0.000000 0.000000 0.000000 1.756718 0.438499 -4.185037 -0.675414 0.186491 2.571789 -3.657724 -10.690759 6.902432 0.000000 0.000000 0.000000 2.939098 0.458116 -8.396863 3.176495 -1.246607 -3.860737 -4.889922 3.210256 12.204058 5.190708 -0.886281 -20.551856 0.000000 0.000000 0.000000 10.690592 -14.441518 4.661383 0.532986 -48.671538 -4.257250 111.389870 -16.385720 -24.401515 0.000000 0.000000 0.000000 7.731812 1.639787 0.686460 65.766545 -1.850292 -7.501422 2.704900 31.264703 2.361863 0.000000 0.000000 0.000000 
0.029091 0.940474 0.824101 -1.596094 3.070853 4.525700 3.358916 -0.224498 -2.099627 0.059771 -0.019058 0.354865 3.623994 9.407570 6.229743 0.000000 0.000000 0.000000 1.684733 0.430760 -4.121203 -0.673654 0.180754 2.443589 -3.662252 -10.693726 6.868424 0.000000 0.000000 0.000000 2.837216 0.455357 -8.433819 3.256407 -1.279450 -3.890804 -4.915350 3.227435 12.052042 4.973551 -0.785968 -20.308790 0.000000 0.000000 0.000000 10.882055 -14.222237 4.614140 1.488038 -48.975010 -4.649756 111.210224 -15.793083 -23.551921 0.000000 0.000000 0.000000 7.771706 1.490876 0.621782 65.748971 -2.084204 -7.612282 2.484578 31.214199 2.298361 0.000000 0.000000 0.000000 
0.028826 0.940346 0.823691 -1.503428 3.374917 4.418135 3.435411 -0.228297 -2.133806 -0.158380 -0.001191 0.498316 3.482172 9.145874 6.140556 0.000000 0.000000 0.000000 1.679033 0.406055 -3.891523 -0.754231 0.182969 2.251713 -3.791174 -10.944141 6.860480 0.000000 0.000000 0.000000 2.680791 0.439863 -8.346228 3.359436 -1.304601 -4.132560 -5.005157 3.233789 11.961050 4.530825 -0.493003 -20.384880 0.000000 0.000000 0.000000 11.139836 -14.137822 4.610143 1.998377 -49.249937 -4.912080 111.057672 -15.529934 -23.242411 0.000000 0.000000 0.000000 7.887733 1.280675 0.548367 65.837038 -2.303105 -7.711782 2.470207 31.157432 2.300298 0.000000 0.000000 0.000000 
0.028589 0.940124 0.823468 -1.339146 3.596939 4.347431 3.262695 -0.231075 -2.207199 -0.097171 -0.014637 0.695754 3.391998 8.971414 6.049947 0.000000 0.000000 0.000000 1.576455 0.389359 -3.739737 -0.819652 0.187087 2.151612 -3.902252 -11.147403 6.764872 0.000000 0.000000 0.000000 2.572618 0.433680 -8.363591 3.331448 -1.282051 -4.252720 -5.042850 3.426715 11.979669 4.135496 -0.241593 -20.223319 0.000000 0.000000 0.000000 11.024780 -14.121805 4.632854 2.973081 -49.425452 -5.359875 111.415178 -14.928923 -22.738843 0.000000 0.000000 0.000000 8.174233 1.323849 0.604188 65.947031 -2.525832 -7.823933 2.398381 31.237421 2.308836 0.000000 0.000000 0.000000 
0.028368 0.940017 0.823432 -1.158899 3.858620 4.253916 3.147906 -0.230367 -2.210989 -0.160862 -0.012498 0.826718 3.265354 8.743427 6.000601 0.000000 0.000000 0.000000 1.396855 0.360363 -3.476881 -0.772647 0.171200 1.925566 -4.011601 -11.356467 6.728188 0.000000 0.000000 0.000000 2.508792 0.424907 -8.301251 3.247450 -1.233803 -4.386617 -5.091000 3.742036 11.860859 3.669455 0.103711 -20.319613 0.000000 0.000000 0.000000 10.883446 -13.943979 4.635535 3.196294 -50.099239 -5.636991 111.587630 -15.099007 -23.240374 0.000000 0.000000 0.000000 8.386860 0.937197 0.482755 66.015874 -2.700516 -7.861128 2.783227 31.328152 2.449380 0.000000 0.000000 0.000000 
0.028093 0.939682 0.823440 -1.055751 3.949964 4.228449 3.110654 -0.225195 -2.132588 -0.241886 -0.000496 0.727411 3.223520 8.652040 5.929773 0.000000 0.000000 0.000000 1.325165 0.344081 -3.329502 -0.794845 0.166230 1.745716 -4.061003 -11.437999 6.609235 0.000000 0.000000 0.000000 2.494752 0.433167 -8.481634 3.194584 -1.219492 -4.251418 -5.209839 4.050847 11.666627 3.510542 0.220212 -20.093807 0.000000 0.000000 0.000000 10.531359 -14.126118 4.708886 3.345151 -50.338346 -5.789360 111.586402 -15.301914 -23.678843 0.000000 0.000000 0.000000 8.745586 0.995757 0.553861 65.855379 -2.731162 -7.819725 3.131896 31.527787 2.580008 0.000000 0.000000 0.000000 
0.027701 0.939524 0.823400 -0.950236 4.471101 4.104658 3.276424 -0.214398 -1.891039 -0.576233 0.044312 0.403880 2.947831 8.168874 5.887467 0.000000 0.000000 0.000000 1.163881 0.316480 -3.062306 -0.559716 0.130371 1.601237 -4.270663 -11.854244 6.610524 0.000000 0.000000 0.000000 2.463738 0.429397 -8.526006 3.175121 -1.198560 -4.360615 -5.503580 4.253089 11.583341 3.327593 0.422266 -20.309283 0.000000 0.000000 0.000000 10.396337 -14.309694 4.792975 3.487860 -50.893630 -6.039653 111.242945 -15.672245 -24.285364 0.000000 0.000000 0.000000 9.386678 0.985530 0.627242 65.548636 -2.658774 -7.720901 3.718014 31.768333 2.796782 0.000000 0.000000 0.000000 
0.027278 0.939211 0.823236 -0.888182 4.771278 3.972058 3.337769 -0.200800 -1.638094 -0.689380 0.063808 0.122530 2.797464 7.888341 5.811473 0.000000 0.000000 0.000000 1.233291 0.284904 -2.766538 -0.694379 0.137895 1.372592 -4.400080 -12.105810 6.551528 0.000000 0.000000 0.000000 2.397883 0.429312 -8.634553 3.077098 -1.151117 -4.389699 -5.598551 4.420891 11.612629 3.152957 0.554335 -20.197415 0.000000 0.000000 0.000000 10.458321 -14.668597 4.898622 4.142292 -50.944802 -6.376516 110.395855 -15.361899 -23.715663 0.000000 0.000000 0.000000 9.676482 1.177428 0.767351 65.319086 -2.564210 -7.637347 4.227763 31.989793 2.978585 0.000000 0.000000 0.000000 
0.026879 0.939101 0.822959 -0.864639 5.236688 3.738165 3.547078 -0.186640 -1.308332 -0.957798 0.097359 -0.165445 2.552194 7.455894 5.772017 0.000000 0.000000 0.000000 1.301901 0.247331 -2.412688 -0.722142 0.136107 1.241439 -4.586266 -12.481346 6.585203 0.000000 0.000000 0.000000 2.313833 0.416201 -8.528896 3.107771 -1.139363 -4.675307 -5.826827 4.334264 11.630325 3.128279 0.598745 -20.225936 0.000000 0.000000 0.000000 10.659501 -14.978769 4.984766 4.511515 -50.983475 -6.578195 109.841686 -14.919663 -23.047769 0.000000 0.000000 0.000000 9.900455 1.337859 0.877942 65.231542 -2.398354 -7.536907 4.413264 31.827096 3.019333 0.000000 0.000000 0.000000 
